#!OML:ASF X:\für Bonn\!DataBase\2005_08_11_Bastian_Final\c3d\Bastian.ASF
:FULLY-SPECIFIED
:DEGREES
239
root 4.84482 17.2971 -7.45201 538.997 37.8441 -175.137
lowerback 26.5575 -7.1325 6.64827
upperback 17.3735 -3.80482 5.64778
thorax 4.85415 -0.123585 3.48457
lowerneck -20.3425 -12.7531 -19.1859
upperneck -5.90426 -13.1397 29.6107
head 5.43059 -4.71029 11.4435
rclavicle 2.38542e-015 -2.54444e-014
rhumerus -19.285 10.3179 -80.6803
rradius 47.9506
rwrist 4.79248
rhand -14.8462 5.4511
rfingers 7.12502
rthumb 11.3131 -24.2238
lclavicle 2.38542e-015 -2.54444e-014
lhumerus -5.1752 -27.2401 -268.327
lradius 24.5923
lwrist -341.495
lhand -18.2262 -6.43333
lfingers 7.12502
lthumb 8.05206 23.3933
rfemur -21.3854 -8.04939 26.8896
rtibia 47.8475
rfoot -12.2729 -0.916561
rtoes -7.67737
lfemur -7.11264 -0.0422408 -7.94785
ltibia 75.4857
lfoot -2.49017 -8.40214
ltoes -32.9844
240
root 4.92723 17.3155 -7.48975 538.9 37.8733 -175.041
lowerback 26.6158 -7.04776 6.61498
upperback 17.4618 -3.67035 5.67265
thorax 4.93404 -0.0461265 3.50645
lowerneck -20.2219 -12.8237 -19.3479
upperneck -6.00569 -13.2064 29.5954
head 5.40637 -4.75527 11.4543
rclavicle 7.31528e-014 -1.51076e-013
rhumerus -18.7995 10.5287 -80.6027
rradius 48.3731
rwrist 4.94409
rhand -14.9403 5.572
rfingers 7.12502
rthumb 11.2223 -24.1078
lclavicle 7.31528e-014 -1.51076e-013
lhumerus -5.42488 -27.0642 -268.226
lradius 24.2062
lwrist -341.263
lhand -18.3213 -6.41452
lfingers 7.12502
lthumb 7.96021 23.4156
rfemur -20.6843 -8.00029 27.0963
rtibia 47.4585
rfoot -12.3916 -1.08586
rtoes -7.75001
lfemur -8.38142 -0.0282932 -7.91807
ltibia 76.5164
lfoot -2.73358 -8.53509
ltoes -32.8188
241
root 5.01015 17.332 -7.52746 538.803 37.913 -174.943
lowerback 26.6433 -6.94977 6.58146
upperback 17.5616 -3.52448 5.68005
thorax 5.04 0.0385173 3.50547
lowerneck -20.1508 -12.9277 -19.5487
upperneck -6.07264 -13.3154 29.6429
head 5.42177 -4.81203 11.4871
rclavicle -8.74653e-014 8.90555e-014
rhumerus -18.3123 10.7123 -80.5627
rradius 48.7928
rwrist 5.11853
rhand -15.0072 5.69475
rfingers 7.12502
rthumb 11.1578 -23.9886
lclavicle -8.74653e-014 8.90555e-014
lhumerus -5.68942 -27.0429 -268.161
lradius 23.8672
lwrist -341.01
lhand -18.4211 -6.38514
lfingers 7.12502
lthumb 7.86387 23.4486
rfemur -19.9795 -7.94171 27.3069
rtibia 47.0808
rfoot -12.5261 -1.25865
rtoes -7.80925
lfemur -9.6461 -0.0148672 -7.89064
ltibia 77.4634
lfoot -3.06199 -8.64907
ltoes -32.2882
242
root 5.09183 17.3477 -7.56396 538.685 37.9365 -174.845
lowerback 26.6861 -6.85995 6.51619
upperback 17.6637 -3.39181 5.69212
thorax 5.14425 0.114014 3.53139
lowerneck -20.0574 -13.0137 -19.7375
upperneck -6.16244 -13.3985 29.6643
head 5.41644 -4.8598 11.5131
rclavicle 5.1684e-014 -1.08139e-013
rhumerus -17.8389 10.9627 -80.498
rradius 49.2247
rwrist 5.27922
rhand -15.0779 5.85756
rfingers 7.12502
rthumb 11.0896 -23.8294
lclavicle 5.1684e-014 -1.08139e-013
lhumerus -5.97897 -27.125 -268.098
lradius 23.5869
lwrist -340.662
lhand -18.5085 -6.38051
lfingers 7.12502
lthumb 7.7796 23.4564
rfemur -19.2657 -7.90049 27.5142
rtibia 46.7026
rfoot -12.6595 -1.43306
rtoes -7.87564
lfemur -10.9129 -0.000487228 -7.87216
ltibia 78.3408
lfoot -3.50236 -8.75372
ltoes -32.1205
243
root 5.17385 17.3613 -7.60036 538.522 37.9721 -174.777
lowerback 26.7487 -6.7555 6.41144
upperback 17.7615 -3.24842 5.69174
thorax 5.23491 0.191079 3.56346
lowerneck -19.9635 -13.0952 -19.9186
upperneck -6.22668 -13.4845 29.7018
head 5.42123 -4.90783 11.5435
rclavicle -6.2816e-014 1.22451e-013
rhumerus -17.4051 11.1805 -80.4714
rradius 49.6705
rwrist 5.37013
rhand -15.1298 6.00271
rfingers 7.12502
rthumb 11.0396 -23.687
lclavicle -6.2816e-014 1.22451e-013
lhumerus -6.30075 -27.2644 -268.037
lradius 23.3275
lwrist -340.269
lhand -18.541 -6.40584
lfingers 7.12502
lthumb 7.74819 23.4322
rfemur -18.5401 -7.88631 27.6919
rtibia 46.3491
rfoot -12.777 -1.54721
rtoes -7.88173
lfemur -12.1271 0.0179506 -7.8899
ltibia 79.1401
lfoot -3.9419 -8.80532
ltoes -32.1718
244
root 5.25612 17.3727 -7.63659 538.366 38.0054 -174.68
lowerback 26.8068 -6.65251 6.30429
upperback 17.8558 -3.10911 5.69219
thorax 5.32363 0.265198 3.59861
lowerneck -19.854 -13.1629 -20.0842
upperneck -6.29242 -13.5563 29.7278
head 5.41719 -4.95099 11.5699
rclavicle 3.33958e-014 -5.80451e-014
rhumerus -16.9998 11.447 -80.4394
rradius 50.1184
rwrist 5.4846
rhand -15.1892 6.16042
rfingers 7.12502
rthumb 10.9823 -23.5323
lclavicle 3.33958e-014 -5.80451e-014
lhumerus -6.69414 -27.4833 -267.981
lradius 23.1819
lwrist -339.788
lhand -18.5754 -6.43916
lfingers 7.12502
lthumb 7.71499 23.4001
rfemur -17.8074 -7.85631 27.8913
rtibia 46.0081
rfoot -12.9268 -1.69898
rtoes -7.9176
lfemur -13.334 0.053964 -7.88345
ltibia 79.8798
lfoot -4.39151 -8.83446
ltoes -32.5262
